<?xml version="1.0" encoding="UTF-8"?>
<svg version="1.1" xmlns="http://www.w3.org/2000/svg" width="217" height="214">
<path d="M0 0 C71.61 0 143.22 0 217 0 C217 70.62 217 141.24 217 214 C145.39 214 73.78 214 0 214 C0 143.38 0 72.76 0 0 Z " fill="#FD705A" transform="translate(0,0)"/>
<path d="M0 0 C2.06452005 10.51028388 -0.98389734 20.55462882 -3.31640625 30.796875 C-3.54247559 31.80218262 -3.76854492 32.80749023 -4.00146484 33.84326172 C-4.44789719 35.81614318 -4.90472139 37.78671143 -5.37353516 39.75439453 C-6.78227128 45.93580361 -7.28670135 51.66501936 -7 58 C-8.485 58.495 -8.485 58.495 -10 59 C-10.79733902 61.91953412 -11.40902793 64.71754381 -11.9375 67.6875 C-13.53274285 75.97163684 -15.56540982 83.91368263 -18 92 C-10.41 92.33 -2.82 92.66 5 93 C5.99 91.02 5.99 91.02 7 89 C7.83218305 87.90145907 8.70391176 86.83193802 9.609375 85.79296875 C10.11726563 85.20580078 10.62515625 84.61863281 11.1484375 84.01367188 C11.67695313 83.41103516 12.20546875 82.80839844 12.75 82.1875 C13.26304687 81.59646484 13.77609375 81.00542969 14.3046875 80.39648438 C15.34125821 79.2023445 16.38228933 78.01206192 17.42773438 76.82568359 C18.50864494 75.57055173 19.56085512 74.29030787 20.58789062 72.99072266 C21.10029297 72.35054199 21.61269531 71.71036133 22.140625 71.05078125 C22.59469727 70.46594971 23.04876953 69.88111816 23.51660156 69.27856445 C25 68 25 68 29 68 C29.8046875 70.1484375 29.8046875 70.1484375 30 73 C28.43702103 75.13913592 26.99486089 76.79352778 25.125 78.625 C24.09132444 79.69166521 23.06010934 80.76071976 22.03125 81.83203125 C21.25587891 82.63181396 21.25587891 82.63181396 20.46484375 83.44775391 C18.39538788 85.64068731 16.50974478 87.96008535 14.625 90.3125 C11.52478406 94.16546621 8.34887879 97.93229545 5.09399414 101.65429688 C3.39776613 103.59890027 1.7203338 105.55865735 0.04296875 107.51953125 C-1.70990726 109.55832586 -3.45629113 111.44434243 -5.38671875 113.32421875 C-9.48185169 117.55225662 -10.2955936 120.69552653 -10.25854492 126.43017578 C-10.21113601 128.01992216 -10.15659635 129.6094717 -10.0949707 131.19873047 C-9.67223091 143.16189468 -14.15202483 152.07216778 -22 161 C-25.9757977 164.81487256 -28.19287635 165 -34 165 C-34.33 169.62 -34.66 174.24 -35 179 C-33.68 178.67 -32.36 178.34 -31 178 C-30.63445211 181.28993102 -30.73781497 182.63099885 -32.6875 185.375 C-35 187 -35 187 -37.64453125 186.6015625 C-38.42183594 186.40304688 -39.19914062 186.20453125 -40 186 C-40.29585516 176.72987164 -40.2452886 167.72793299 -38.6875 158.5625 C-38.56979248 157.86721191 -38.45208496 157.17192383 -38.33081055 156.45556641 C-37.42240329 151.51192459 -36.11911072 146.71487315 -34.76928711 141.87573242 C-33.48631689 137.07976092 -32.46641424 132.23069621 -31.4375 127.375 C-31.01970792 125.42444132 -30.60174154 123.47391996 -30.18359375 121.5234375 C-29.98652832 120.5945874 -29.78946289 119.6657373 -29.58642578 118.70874023 C-28.87583569 115.42647669 -28.11073387 112.15796143 -27.32739258 108.89233398 C-26.52812976 104.27258299 -27.95737116 101.08525768 -30 97 C-37.92 96.67 -45.84 96.34 -54 96 C-54.66 97.98 -55.32 99.96 -56 102 C-57.01844191 104.04732075 -58.08706625 106.07017839 -59.1953125 108.0703125 C-59.82953125 109.215 -60.46375 110.3596875 -61.1171875 111.5390625 C-61.4481543 112.12977539 -61.77912109 112.72048828 -62.12011719 113.32910156 C-63.10850193 115.09551511 -64.08604801 116.86759376 -65.0625 118.640625 C-79.59580738 144.73053826 -79.59580738 144.73053826 -89 151 C-93.83989249 151.5553975 -95.96216678 151.61049013 -100.1875 149.125 C-109.84078479 139.70780098 -111.27388648 124.77388463 -111.4375 112 C-111.37056842 99.32841797 -108.87749827 87.25310552 -99.92578125 77.8125 C-92.44693981 70.70188674 -86.25183596 69.65654898 -76.11328125 69.796875 C-72.42571927 70.03746876 -69.45027175 70.71617795 -66 72 C-65.67 73.32 -65.34 74.64 -65 76 C-65.64026123 75.98952637 -66.28052246 75.97905273 -66.94018555 75.96826172 C-69.85591671 75.92655185 -72.77158495 75.90062637 -75.6875 75.875 C-77.19860352 75.84986328 -77.19860352 75.84986328 -78.74023438 75.82421875 C-80.20493164 75.81455078 -80.20493164 75.81455078 -81.69921875 75.8046875 C-83.04246216 75.78897705 -83.04246216 75.78897705 -84.4128418 75.77294922 C-89.91884919 76.25616021 -94.36606235 78.88791265 -98 83 C-103.57856252 92.04217551 -105.37166058 100.62271169 -105.3125 111.125 C-105.30758545 112.14601807 -105.3026709 113.16703613 -105.29760742 114.21899414 C-105.12797732 125.1718792 -104.208055 136.791945 -96 145 C-93.16926564 145.50169415 -93.16926564 145.50169415 -90 145 C-86.20466922 141.66378182 -83.27738028 137.87978311 -80.5 133.6875 C-80.08492187 133.06447998 -79.66984375 132.44145996 -79.2421875 131.79956055 C-72.0431383 120.7128669 -65.86281581 108.84089239 -60 97 C-61.43835205 96.92483154 -61.43835205 96.92483154 -62.90576172 96.84814453 C-66.45840262 96.66000547 -70.01026037 96.45956454 -73.56201172 96.25537109 C-75.10023702 96.16866935 -76.63865499 96.08531909 -78.17724609 96.00537109 C-80.38698435 95.8899689 -82.59575258 95.76258707 -84.8046875 95.6328125 C-85.83914505 95.58267502 -85.83914505 95.58267502 -86.89450073 95.53152466 C-91.77225659 95.22774341 -91.77225659 95.22774341 -94 93 C-94 92.01 -94 91.02 -94 90 C-81.46 90 -68.92 90 -56 90 C-54.22625 86.431875 -52.4525 82.86375 -50.625 79.1875 C-46.35474012 70.62309475 -41.99833178 62.11353026 -37.50805664 53.66259766 C-34.94686523 48.83251074 -32.47704459 43.96727444 -30.0625 39.0625 C-9.57321697 -2.26734086 -9.57321697 -2.26734086 0 0 Z " fill="#FEF4F2" transform="translate(141,24)"/>
<path d="M0 0 C0.33 0 0.66 0 1 0 C0.5192803 9.00417001 -1.00546139 17.52994438 -3 26.3125 C-5.35447543 36.592632 -5.35447543 36.592632 -7 47 C-8.2684375 47.09474609 -8.2684375 47.09474609 -9.5625 47.19140625 C-16.50501251 47.94088203 -21.42877024 48.86914325 -26.41015625 53.9453125 C-30.33731613 59.02070831 -32.66822107 64.34153633 -32.33984375 70.8828125 C-31.79161849 74.29819285 -30.76539128 77.52984145 -29.65625 80.80078125 C-29 83 -29 83 -29 86 C-34.28 86 -39.56 86 -45 86 C-44.09788718 81.48943591 -42.7588756 78.13258386 -40.6875 74.125 C-40.33776123 73.43720459 -39.98802246 72.74940918 -39.62768555 72.04077148 C-38.4272562 69.68921014 -37.21529358 67.3439129 -36 65 C-35.55688477 64.14519043 -35.11376953 63.29038086 -34.65722656 62.40966797 C-32.18706025 57.65291713 -29.70474002 52.9026997 -27.21484375 48.15625 C-25.01633386 43.95989055 -22.84491001 39.7508763 -20.69140625 35.53125 C-5.13652693 5.13652693 -5.13652693 5.13652693 0 0 Z " fill="#FD7661" transform="translate(136,29)"/>
<path d="M0 0 C-2.17698416 11.51022475 -4.51468609 22.80250211 -8 34 C-9.828125 33.80859375 -9.828125 33.80859375 -12 33 C-15.82501421 27.45372939 -17.86950048 21.08446679 -17.484375 14.35546875 C-16.33300785 8.75648174 -13.33425331 5.13553473 -9.0625 1.5 C-5.69483254 -0.14946978 -3.68629218 -0.1230473 0 0 Z " fill="#FD745F" transform="translate(126,82)"/>
<path d="M0 0 C6.6 0 13.2 0 20 0 C18.05613861 3.88772277 15.76298958 6.95020101 13 10.25 C12.54882812 10.80429688 12.09765625 11.35859375 11.6328125 11.9296875 C10.46926971 13.32731582 9.23905262 14.66885563 8 16 C7.34 16 6.68 16 6 16 C4.98696238 14.27843904 3.99005152 12.54738194 3 10.8125 C2.443125 9.84957031 1.88625 8.88664063 1.3125 7.89453125 C0 5 0 5 0 0 Z " fill="#FD7762" transform="translate(121,121)"/>
<path d="M0 0 C0.33 0 0.66 0 1 0 C1.85179736 9.36977093 -1.68558007 18.16391176 -7.53515625 25.37890625 C-8.26025391 26.18134766 -8.26025391 26.18134766 -9 27 C-9.49371094 27.56589844 -9.98742187 28.13179687 -10.49609375 28.71484375 C-12 30 -12 30 -15 30 C-13.72716034 19.22981827 -6.77111846 8.30131472 0 0 Z " fill="#FD7863" transform="translate(124,153)"/>
<path d="M0 0 C0.66 0 1.32 0 2 0 C4.16210688 3.87377482 5.5757054 6.55136733 5 11 C3.25 13.89453125 3.25 13.89453125 1 16.8125 C0.2575 17.78832031 -0.485 18.76414063 -1.25 19.76953125 C-1.8275 20.50558594 -2.405 21.24164063 -3 22 C-4.07365377 18.7790387 -3.93405499 17.76285435 -3.22265625 14.55078125 C-3.03896484 13.70322266 -2.85527344 12.85566406 -2.66601562 11.98242188 C-2.46685547 11.10134766 -2.26769531 10.22027344 -2.0625 9.3125 C-1.86720703 8.41982422 -1.67191406 7.52714844 -1.47070312 6.60742188 C-0.98744798 4.40330694 -0.49697166 2.2010555 0 0 Z " fill="#FD7B67" transform="translate(118,134)"/>
</svg>
