<?xml version="1.0" encoding="UTF-8"?>
<svg version="1.1" xmlns="http://www.w3.org/2000/svg" width="300" height="300">
<path d="M0 0 C165 0 330 0 500 0 C500 165 500 330 500 500 C335 500 170 500 0 500 C0 335 0 170 0 0 Z " fill="#FE705A" transform="translate(0,0)"/>
<path d="M0 0 C3.375 0.875 3.375 0.875 5.375 3.875 C8.19808641 29.9662618 -0.69247127 57.57361059 -6.63671875 82.77734375 C-6.89276886 83.87244514 -6.89276886 83.87244514 -7.1539917 84.9896698 C-8.11772877 89.03029573 -9.24873279 92.95568872 -10.625 96.875 C-9.305 97.535 -7.985 98.195 -6.625 98.875 C-6.9375 101.75 -6.9375 101.75 -7.625 104.875 C-10.625 106.875 -10.625 106.875 -13.625 106.875 C-13.74431885 108.16720459 -13.8636377 109.45940918 -13.98657227 110.79077148 C-14.53765639 115.72584331 -15.60076046 120.42057271 -16.83984375 125.22265625 C-17.0556459 126.07879013 -17.27144806 126.93492401 -17.49378967 127.81700134 C-18.17778695 130.52528233 -18.86995891 133.23139265 -19.5625 135.9375 C-20.02333621 137.75572013 -20.48362725 139.57407852 -20.94335938 141.39257812 C-21.98010638 145.48992134 -23.02274598 149.58572295 -24.06881714 153.68069458 C-24.62444938 155.87282764 -25.16737886 158.06785304 -25.70922852 160.26342773 C-26.625 163.875 -26.625 163.875 -27.625 166.875 C-22.13027797 167.17418905 -16.64039369 167.39048819 -11.1394043 167.53417969 C-9.27365479 167.59412086 -7.40845936 167.67571623 -5.54467773 167.78027344 C5.87970776 168.74713849 5.87970776 168.74713849 15.9621582 164.34594727 C18.82678614 161.46422243 21.10052001 158.2386271 23.375 154.875 C24.88103325 153.00879211 26.39963337 151.15256366 27.9375 149.3125 C28.65808594 148.41789063 29.37867188 147.52328125 30.12109375 146.6015625 C33.28805909 142.77046751 36.63988276 139.12276009 40.00390625 135.46484375 C42.7514995 132.46376579 45.43178622 129.40952883 48.09765625 126.3359375 C48.83332299 125.49453273 49.58469387 124.66530613 50.375 123.875 C52.71444736 124.16230055 55.0489143 124.49436779 57.375 124.875 C58.1171875 127.546875 58.1171875 127.546875 58.375 130.875 C56.8203125 133.515625 56.8203125 133.515625 54.5 136.125 C53.66726563 137.07890625 52.83453125 138.0328125 51.9765625 139.015625 C51.11804688 139.95921875 50.25953125 140.9028125 49.375 141.875 C48.61960937 142.71546875 47.86421875 143.5559375 47.0859375 144.421875 C45.59797586 146.0728289 44.10570001 147.71990361 42.609375 149.36328125 C40.37365467 151.87651232 38.24122318 154.44811479 36.125 157.0625 C32.52029915 161.51352192 28.82129733 165.86698605 25.0625 170.1875 C24.51142578 170.82099365 23.96035156 171.4544873 23.39257812 172.10717773 C22.27337515 173.39331655 21.15407163 174.67936788 20.03466797 175.96533203 C9.69847012 187.85827225 9.69847012 187.85827225 -0.30859375 200.02734375 C-2.05373931 202.17272505 -3.82869229 204.24737166 -5.66015625 206.31640625 C-11.07843794 212.20908254 -11.07843794 212.20908254 -14.09765625 219.390625 C-13.85063774 221.71760626 -13.85063774 221.71760626 -13.25 224.07421875 C-9.24991834 241.99958469 -15.41207252 261.54756256 -24.625 276.875 C-30.31430678 285.27819615 -37.49288593 293.99227028 -47.62890625 296.66796875 C-50.29366839 297.17505631 -52.9291081 297.58273508 -55.625 297.875 C-56.92401921 305.92427976 -57.96353295 313.71259432 -57.625 321.875 C-56.965 321.215 -56.305 320.555 -55.625 319.875 C-53 320.25 -53 320.25 -50.625 320.875 C-49.875 323 -49.875 323 -49.625 325.875 C-51.73080567 329.69664733 -54.14350293 333.21267871 -57.625 335.875 C-60.6875 336.375 -60.6875 336.375 -63.625 335.875 C-66.30717214 333.49718782 -66.84982071 331.3439785 -67.09375 327.90234375 C-67.12860524 326.20605525 -67.13680788 324.50910547 -67.125 322.8125 C-67.12145508 321.87728516 -67.11791016 320.94207031 -67.11425781 319.97851562 C-66.90716125 310.52410732 -65.69701504 301.22542989 -64.375 291.875 C-64.22164185 290.76691483 -64.22164185 290.76691483 -64.06518555 289.63644409 C-62.85415825 281.02651317 -61.17711501 272.85524264 -58.65576172 264.51611328 C-56.85800184 258.16561807 -55.61306123 251.6978472 -54.30297852 245.23226929 C-52.20362649 234.87514377 -50.09087954 224.52495927 -47.55078125 214.265625 C-47.38684372 213.60256851 -47.22290619 212.93951202 -47.05400085 212.25636292 C-46.28936468 209.18234556 -45.50781948 206.11358351 -44.70776367 203.04858398 C-41.83672487 192.48586659 -41.83672487 192.48586659 -43.9375 182.09765625 C-44.494375 181.38480469 -45.05125 180.67195312 -45.625 179.9375 C-48.625 176 -48.625 176 -48.625 173.875 C-62.485 173.875 -76.345 173.875 -90.625 173.875 C-92.831875 178.185625 -95.03875 182.49625 -97.3125 186.9375 C-136.63689619 263.18025177 -136.63689619 263.18025177 -154.515625 271.21875 C-159.5473948 272.78418949 -163.96770642 272.48054958 -168.875 270.6875 C-178.70787577 264.20674097 -183.62045351 254.59685028 -187.625 243.875 C-187.91246094 243.16988281 -188.19992188 242.46476563 -188.49609375 241.73828125 C-198.15683692 216.25994822 -195.96602713 183.80024747 -185.625 158.875 C-178.95866083 145.02568036 -169.12737261 133.75410504 -154.51953125 128.20703125 C-148.97477748 126.44625184 -143.58826614 126.42252799 -137.8125 126.5 C-136.75530762 126.50725098 -135.69811523 126.51450195 -134.60888672 126.52197266 C-116.65983073 126.84016927 -116.65983073 126.84016927 -111.625 131.875 C-111.4375 134.4375 -111.4375 134.4375 -111.625 136.875 C-111.955 137.205 -112.285 137.535 -112.625 137.875 C-114.17035407 137.80987013 -115.71284786 137.67182667 -117.25 137.5 C-118.08789062 137.40976563 -118.92578125 137.31953125 -119.7890625 137.2265625 C-121.85498028 136.97045699 -123.91591474 136.67315335 -125.97265625 136.3515625 C-139.1413425 134.63329542 -151.44890681 135.13160334 -162.46875 143.10546875 C-174.12021494 152.66726878 -179.93400022 166.30190966 -182.625 180.875 C-182.82867187 181.93847656 -183.03234375 183.00195312 -183.2421875 184.09765625 C-187.39959248 208.89970925 -184.59972642 237.15122212 -170.01953125 258.23828125 C-168.18836904 260.38746042 -166.42394666 261.69693102 -163.64453125 262.31640625 C-159.14737613 262.56315281 -156.24045 262.11691291 -152.6875 259.25 C-129.89617492 236.54805266 -115.31638484 202.13065285 -100.625 173.875 C-111.76395724 172.96343969 -122.86916009 172.5849698 -134.0378418 172.32275391 C-158.32764151 171.73990566 -158.32764151 171.73990566 -162.625 168.875 C-162.9375 166.375 -162.9375 166.375 -162.625 163.875 C-160.625 161.875 -160.625 161.875 -156.91015625 161.86328125 C-155.16877523 161.96305057 -153.42791153 162.0720465 -151.6875 162.1875 C-139.35880096 162.87317465 -127.03114232 163.16841394 -114.6875 163.4375 C-112.70906489 163.48148763 -110.73063063 163.52551364 -108.75219727 163.56958008 C-104.04318047 163.67376096 -99.33411134 163.77518854 -94.625 163.875 C-94.38604004 163.0600708 -94.14708008 162.2451416 -93.90087891 161.40551758 C-92.36742243 157.16225044 -90.35222263 153.34921761 -88.2109375 149.38671875 C-87.30329199 147.68465218 -86.39676046 145.98199122 -85.49121094 144.27880859 C-85.01953491 143.39271912 -84.54785889 142.50662964 -84.06188965 141.59368896 C-81.68122806 137.08932191 -79.3586452 132.55557951 -77.0390625 128.01953125 C-76.56923447 127.10109436 -76.09940643 126.18265747 -75.61534119 125.23638916 C-74.15910655 122.38733045 -72.70445583 119.53746715 -71.25 116.6875 C-70.74642975 115.70187073 -70.2428595 114.71624146 -69.72402954 113.70074463 C-64.03933834 102.57391146 -58.37425756 91.43889184 -52.8125 80.25 C-47.90160019 70.3754415 -42.83323028 60.59586731 -37.625 50.875 C-37.150625 49.98538574 -36.67625 49.09577148 -36.1875 48.17919922 C-10.2626806 -0.35388554 -10.2626806 -0.35388554 0 0 Z " fill="#FEFAF9" transform="translate(301.625,83.125)"/>
<path d="M0 0 C0.33 0 0.66 0 1 0 C1.29908026 8.32993898 0.53737979 15.87255363 -1.25 24 C-1.71516674 26.2069632 -2.18000668 28.4139953 -2.64453125 30.62109375 C-2.8760791 31.70245605 -3.10762695 32.78381836 -3.34619141 33.89794922 C-3.9301032 36.66836864 -4.48204176 39.44144709 -5.01171875 42.22265625 C-11.41892265 75.83784529 -11.41892265 75.83784529 -15 83 C-17.1171875 83.2734375 -17.1171875 83.2734375 -19.875 83.375 C-32.04917569 84.32117946 -41.14560552 89.49475054 -49.3125 98.4375 C-56.73121059 107.62354884 -59.03468069 118.29102989 -58.26025391 129.9609375 C-57.6542404 134.70899079 -55.96172441 139.10206824 -54.2890625 143.5625 C-53.00822727 146.97806061 -52.00213332 150.4925334 -51 154 C-61.23 154 -71.46 154 -82 154 C-79.75031006 147.25093017 -79.75031006 147.25093017 -78.19091797 144.24658203 C-77.66709534 143.22919449 -77.66709534 143.22919449 -77.13269043 142.19125366 C-76.75632446 141.47071808 -76.3799585 140.7501825 -75.9921875 140.0078125 C-75.59439087 139.23724518 -75.19659424 138.46667786 -74.78674316 137.67276001 C-73.93146544 136.01670918 -73.07433034 134.36161654 -72.21551514 132.70739746 C-69.93669174 128.31742259 -67.67163555 123.92035789 -65.40625 119.5234375 C-64.71938614 118.19125183 -64.71938614 118.19125183 -64.01864624 116.83215332 C-59.73250635 108.50679753 -55.54253796 100.1351843 -51.375 91.75 C-46.49940773 81.95105056 -41.55656857 72.19725497 -36.40625 62.5390625 C-34.64616317 59.2367069 -32.92444302 55.91671201 -31.21875 52.5859375 C-25.94525056 42.31063295 -20.49042414 32.17495652 -14.6875 22.1875 C-14.12514648 21.21594971 -13.56279297 20.24439941 -12.98339844 19.2434082 C-4.0775943 4.0775943 -4.0775943 4.0775943 0 0 Z " fill="#FE725C" transform="translate(298,94)"/>
<path d="M0 0 C-0.62490546 7.15665543 -2.02425392 13.9079196 -3.75 20.875 C-4.01586914 21.96546631 -4.28173828 23.05593262 -4.55566406 24.17944336 C-6.58634838 32.45768893 -8.71511203 40.70848285 -10.921875 48.94140625 C-11.99536663 52.94956047 -13.00322327 56.97211585 -14 61 C-15.98 61 -17.96 61 -20 61 C-33.62048432 34.76657404 -33.62048432 34.76657404 -28.96875 19.6484375 C-25.43868257 11.90190065 -20.38816012 5.62294924 -12.6328125 1.84765625 C-8.37640369 0.29270556 -4.56113847 -0.35085681 0 0 Z " fill="#FE725C" transform="translate(280,188)"/>
<path d="M0 0 C11.72024504 -0.11465457 23.31068812 0.09710143 35 1 C30.76555145 6.88117854 26.17914665 12.36793073 21.40332031 17.81103516 C18.00347849 21.71631866 14.95351592 25.74585322 12 30 C9.23610832 26.54296934 7.09292507 22.78847281 4.9375 18.9375 C3.03929455 15.56252554 1.1497865 12.22467976 -1 9 C-1.33333333 2.66666667 -1.33333333 2.66666667 0 0 Z " fill="#FE725C" transform="translate(272,258)"/>
<path d="M0 0 C0.33 0 0.66 0 1 0 C2.1696929 15.33597352 -2.7944961 32.53547905 -12.36035156 44.73486328 C-16.57755038 49.58766862 -20.76079973 53.95399198 -27 56 C-27.31596986 50.0623998 -26.55810522 45.79016563 -24 40.375 C-23.68313232 39.6826123 -23.36626465 38.99022461 -23.03979492 38.27685547 C-17.296911 25.96967096 -9.99991298 14.6930758 -2.44140625 3.4453125 C-1.77153687 2.44781982 -1.77153687 2.44781982 -1.08813477 1.43017578 C-0.72905029 0.95821777 -0.36996582 0.48625977 0 0 Z " fill="#FE735D" transform="translate(277,314)"/>
<path d="M0 0 C2.79829275 2.44542886 4.15306136 5.0112156 5.6875 8.375 C6.12449219 9.31085938 6.56148438 10.24671875 7.01171875 11.2109375 C8.08650142 14.24411863 8.56735175 15.82950494 8 19 C6.51549682 21.57339491 4.71410196 23.85939169 2.875 26.1875 C1.86254585 27.51308095 0.85342437 28.84121398 -0.15234375 30.171875 C-0.64202637 30.81962891 -1.13170898 31.46738281 -1.63623047 32.13476562 C-4.39262729 35.90470328 -6.72783001 39.92543356 -9 44 C-10.20002284 40.49615972 -9.78609764 38.1555501 -8.890625 34.59765625 C-8.63176514 33.54779541 -8.37290527 32.49793457 -8.10620117 31.41625977 C-7.82365479 30.30951904 -7.5411084 29.20277832 -7.25 28.0625 C-6.68836533 25.80219181 -6.12716325 23.54177609 -5.56640625 21.28125 C-5.2945752 20.19714844 -5.02274414 19.11304688 -4.74267578 17.99609375 C-3.60335315 13.39985204 -2.56953142 8.78279907 -1.54296875 4.16015625 C-1 2 -1 2 0 0 Z " fill="#FE7560" transform="translate(267,281)"/>
</svg>
